<?xml version="1.0" encoding="UTF-8"?>
<!-- Generator: https://ezgif.com/png-to-svg -->
<svg version="1.1" xmlns="http://www.w3.org/2000/svg" width="100" height="100">
<path d="M0 0 C5 2.83 7.9 7.06 9.69 12.44 C9.76 14.33 9.77 16.23 9.75 18.12 C9.74 19.12 9.73 20.11 9.72 21.14 C9.71 21.9 9.7 22.66 9.69 23.44 C11.23 23.34 11.23 23.34 12.81 23.25 C17.57 23.48 20.69 24.47 24.14 27.87 C27.88 32.18 29.07 35.53 28.96 41.25 C28.48 45.1 27.18 48.46 24.69 51.44 C18.45 56.03 13.03 56.02 5.44 55.97 C4.27 55.97 3.09 55.98 1.89 55.98 C-0.59 55.98 -3.06 55.98 -5.53 55.96 C-9.3 55.94 -13.07 55.96 -16.84 55.98 C-19.25 55.98 -21.66 55.98 -24.06 55.97 C-25.75 55.98 -25.75 55.98 -27.47 55.99 C-33.96 55.92 -38.03 55.32 -43.31 51.44 C-46.24 47.94 -47.54 43.84 -47.75 39.31 C-47.12 33.74 -45.52 30.29 -41.31 26.62 C-36.83 23.36 -33.74 23.34 -28.31 23.44 C-28.36 22.74 -28.41 22.03 -28.45 21.31 C-28.7 14.81 -28.41 9.7 -24.31 4.44 C-17.45 -1.82 -8.72 -3.88 0 0 Z " fill="#000000" transform="translate(59.3125,38.5625)"/>
<path d="M0 0 C4.96 2.85 7.11 5.96 8.66 11.46 C9.3 16.2 8.58 20.51 7 25 C4.62 28.06 4.62 28.06 2 30 C1.1 30.68 1.1 30.68 0.19 31.38 C-3.38 32.4 -6.55 32.27 -10 31 C-13.6 27.9 -16.83 24.24 -17.2 19.39 C-17.31 11.98 -16.97 7.32 -11.88 1.62 C-7.84 -0.66 -4.53 -0.89 0 0 Z " fill="#000000" transform="translate(70,0)"/>
<path d="M0 0 C4.35 2.26 6.53 5.4 8 10 C8.65 15.63 8.79 20.46 6.19 25.56 C5.1 26.77 5.1 26.77 4 28 C3.59 28.6 3.17 29.2 2.75 29.81 C-0.26 31.86 -3.45 32.21 -7 32 C-11.11 30.7 -13.46 28.8 -15.88 25.25 C-18.18 18.58 -18.61 13.64 -16.07 7.05 C-12.67 0.51 -7.08 -1.58 0 0 Z " fill="#000000" transform="translate(39,0)"/>
<path d="M0 0 C3.84 2.05 6.43 4.95 8 9 C9.32 20.87 9.32 20.87 6.19 25.62 C5.47 26.41 4.74 27.19 4 28 C3.59 28.6 3.17 29.2 2.75 29.81 C-0.22 31.83 -3.5 32.11 -7 32 C-11.72 30.07 -14.74 26.53 -17 22 C-18.04 9.68 -18.04 9.68 -15.25 5.38 C-14.51 4.59 -13.77 3.81 -13 3 C-12.44 2.38 -11.89 1.76 -11.31 1.12 C-7.58 -0.69 -4.05 -0.76 0 0 Z " fill="#000000" transform="translate(92,25)"/>
<path d="M0 0 C3.84 2.05 6.43 4.95 8 9 C9.32 20.87 9.32 20.87 6.19 25.62 C5.47 26.41 4.74 27.19 4 28 C3.59 28.6 3.18 29.2 2.75 29.81 C-0.22 31.83 -3.5 32.11 -7 32 C-11.72 30.07 -14.74 26.53 -17 22 C-18.04 9.68 -18.04 9.68 -15.25 5.38 C-14.51 4.59 -13.77 3.81 -13 3 C-12.44 2.38 -11.89 1.76 -11.31 1.12 C-7.58 -0.69 -4.05 -0.76 0 0 Z " fill="#000000" transform="translate(17,25)"/>
</svg>
