<?xml version="1.0" encoding="UTF-8"?>
<!-- Generator: https://ezgif.com/png-to-svg -->
<svg version="1.1" xmlns="http://www.w3.org/2000/svg" width="100" height="100">
<path d="M0 0 C0.93 -0.01 1.87 -0.03 2.83 -0.04 C4.35 -0.05 4.35 -0.05 5.89 -0.06 C7.46 -0.07 7.46 -0.07 9.05 -0.09 C11.26 -0.1 13.47 -0.11 15.67 -0.12 C19.04 -0.14 22.4 -0.18 25.76 -0.22 C27.91 -0.23 30.06 -0.24 32.2 -0.25 C33.7 -0.28 33.7 -0.28 35.23 -0.3 C42.28 -0.28 48.06 0.9 53.22 5.99 C53.76 6.86 53.76 6.86 54.32 7.74 C54.7 8.32 55.08 8.9 55.47 9.49 C60.32 18.47 57.38 26.93 57.38 38.18 C32.3 38.18 7.22 38.18 -18.62 38.18 C-18.62 10.23 -18.62 10.23 -12.8 4.34 C-12.23 3.97 -11.65 3.61 -11.06 3.24 C-10.19 2.67 -10.19 2.67 -9.3 2.09 C-6.15 0.38 -3.51 0.04 0 0 Z " fill="#000000" transform="translate(30.619873046875,55.822998046875)"/>
<path d="M0 0 C5.04 2.8 8.67 6.7 10.63 12.15 C11.59 17.97 11.54 23.34 8.63 28.59 C4.92 33.53 0.9 36.61 -5.27 37.62 C-11.21 37.91 -15.86 37.36 -20.68 33.75 C-25.61 29.09 -27.67 24.99 -28 18.15 C-27.67 11.31 -25.61 7.2 -20.68 2.55 C-14.62 -1.99 -7.08 -2.54 0 0 Z " fill="#000000" transform="translate(58.37109375,6.8515625)"/>
</svg>
