<?xml version="1.0" encoding="UTF-8"?>
<!-- Generator: https://ezgif.com/png-to-svg -->
<svg version="1.1" xmlns="http://www.w3.org/2000/svg" width="100" height="100">
<path d="M0 0 C4.62 0 9.24 0 14 0 C14.66 2.31 15.32 4.62 16 7 C19.52 6.41 21.71 5.64 25 4 C29.45 8.46 29.45 8.46 34 13 C33.01 14.65 32.02 16.3 31 18 C30.75 21.21 30.75 21.21 31 24 C33.31 24 35.62 24 38 24 C38 28.62 38 33.24 38 38 C35.69 38.66 33.38 39.32 31 40 C31.61 43.57 32.62 46.66 34 50 C32.77 51.37 31.51 52.72 30.25 54.06 C29.55 54.82 28.86 55.57 28.14 56.35 C26 58 26 58 23.9 57.82 C23.27 57.55 22.65 57.28 22 57 C20.35 56.29 18.68 55.62 17 55 C16.01 55.49 16.01 55.49 15 56 C14.59 58.32 14.26 60.66 14 63 C9.38 63 4.76 63 0 63 C-0.33 60.36 -0.66 57.72 -1 55 C-5.48 55.45 -5.48 55.45 -9 58 C-12.51 57.69 -14.36 56.1 -16.81 53.69 C-17.44 53.09 -18.06 52.5 -18.71 51.89 C-20 50 -20 50 -19.77 47.9 C-19 46 -19 46 -17.94 43.94 C-16.78 41.91 -16.78 41.91 -17 39 C-20.96 38.51 -20.96 38.51 -25 38 C-25 33.38 -25 28.76 -25 24 C-21.53 23.51 -21.53 23.51 -18 23 C-17.22 21.21 -17.22 21.21 -17 19 C-17.49 18.34 -17.99 17.68 -18.5 17 C-20 15 -20 15 -19.82 13.11 C-18.81 10.5 -17.46 9.16 -15.44 7.25 C-14.8 6.64 -14.16 6.02 -13.5 5.39 C-13 4.93 -12.51 4.47 -12 4 C-11.28 4.31 -10.56 4.62 -9.81 4.94 C-7.2 5.93 -4.75 6.53 -2 7 C-1.34 4.69 -0.68 2.38 0 0 Z M-2.81 23.5 C-5.57 26.98 -5.36 30.76 -5 35 C-3.37 38.08 -1.97 40.26 0.81 42.38 C5.1 43.6 8.68 43.6 12.75 41.75 C16.31 38.98 17.7 37.07 18.94 32.69 C19.02 28.09 18 25.46 15 22 C8.38 17.73 3.2 18.52 -2.81 23.5 Z " fill="#000000" transform="translate(62,0)"/>
<path d="M0 0 C2.64 0 5.28 0 8 0 C8.33 1.98 8.66 3.96 9 6 C11.86 6.68 11.86 6.68 15 7 C15.99 6.34 16.98 5.68 18 5 C20.96 5.36 21.85 5.85 24 8 C23.69 9.81 23.69 9.81 23 12 C22.18 15.37 21.88 16.64 23 20 C24.98 20.33 26.96 20.66 29 21 C29 23.64 29 26.28 29 29 C26.03 29.5 26.03 29.5 23 30 C22.32 32.86 22.32 32.86 22 36 C22.66 36.99 23.32 37.98 24 39 C23.64 41.96 23.15 42.85 21 45 C19.19 44.69 19.19 44.69 17 44 C13.63 43.18 12.36 42.88 9 44 C8.67 45.98 8.34 47.96 8 50 C5.36 50 2.72 50 0 50 C-0.33 48.02 -0.66 46.04 -1 44 C-3.86 43.32 -3.86 43.32 -7 43 C-7.99 43.66 -8.98 44.32 -10 45 C-12.96 44.64 -13.85 44.15 -16 42 C-15.69 40.19 -15.69 40.19 -15 38 C-14.18 34.63 -13.88 33.36 -15 30 C-16.98 29.67 -18.96 29.34 -21 29 C-21 26.36 -21 23.72 -21 21 C-19.02 20.67 -17.04 20.34 -15 20 C-14.32 17.14 -14.32 17.14 -14 14 C-14.66 13.01 -15.32 12.02 -16 11 C-15.64 8.04 -15.15 7.15 -13 5 C-11.19 5.31 -11.19 5.31 -9 6 C-5.63 6.82 -4.36 7.12 -1 6 C-0.67 4.02 -0.34 2.04 0 0 Z M-1.38 19.62 C-3.49 22.71 -3.61 24.33 -3 28 C-1.5 30.5 -1.5 30.5 1 32 C4.67 32.61 6.29 32.49 9.38 30.38 C11.49 27.29 11.61 25.67 11 22 C9.5 19.5 9.5 19.5 7 18 C3.33 17.39 1.71 17.51 -1.38 19.62 Z " fill="#000000" transform="translate(21,50)"/>
</svg>
